<?xml version="1.0" standalone="no"?>
<!DOCTYPE svg PUBLIC "-//W3C//DTD SVG 20010904//EN"
 "http://www.w3.org/TR/2001/REC-SVG-20010904/DTD/svg10.dtd">
<svg version="1.0" xmlns="http://www.w3.org/2000/svg"
 width="900.000000pt" height="899.000000pt" viewBox="0 0 900.000000 899.000000"
 preserveAspectRatio="xMidYMid meet">
<metadata>
Created by potrace 1.16, written by Peter Selinger 2001-2019
</metadata>
<g transform="translate(0.000000,899.000000) scale(0.100000,-0.100000)"
fill="#000000" stroke="none">
<path d="M0 4495 l0 -4495 4500 0 4500 0 0 4495 0 4495 -4500 0 -4500 0 0
-4495z m4228 2413 c88 -36 214 -115 286 -179 136 -121 245 -307 303 -519 27
-99 24 -348 -5 -454 -37 -132 -82 -227 -122 -254 -52 -35 -113 -27 -157 22
-45 49 -46 102 -1 172 48 75 94 181 117 269 29 108 29 281 1 391 -62 244 -232
452 -453 554 -83 39 -64 38 31 -2z m72 -873 c37 -19 60 -63 60 -115 0 -32 -7
-48 -34 -77 l-33 -37 -154 -7 c-85 -4 -180 -15 -211 -23 -217 -59 -422 -226
-517 -421 -62 -127 -83 -212 -90 -360 l-7 -130 -8 80 c-33 308 71 607 288 820
88 87 159 138 264 189 165 81 370 118 442 81z m-74 -500 c13 -8 37 -42 53 -74
157 -310 493 -492 835 -452 149 17 325 90 427 175 14 11 4 1 -22 -24 -137
-130 -367 -223 -584 -237 -298 -18 -580 95 -784 313 -88 94 -121 148 -121 200
0 97 113 154 196 99z m-1194 -1491 c80 -25 148 -71 202 -135 28 -33 76 -124
76 -144 0 -9 -238 -76 -265 -75 -5 0 -21 18 -34 39 -43 70 -138 103 -247 86
-94 -14 -135 -97 -79 -164 29 -34 76 -51 220 -81 253 -54 355 -122 399 -269
41 -139 -4 -314 -100 -390 -112 -88 -357 -124 -542 -80 -136 33 -251 118 -301
224 -40 85 -41 83 94 121 66 18 127 33 136 34 9 0 22 -14 29 -31 45 -108 291
-149 376 -64 32 32 33 101 3 134 -28 29 -54 39 -174 62 -262 50 -398 134 -446
274 -19 59 -17 190 4 252 32 91 119 171 229 209 115 39 291 38 420 -2z m2783
4 c1 -2 52 -91 113 -198 131 -233 154 -272 157 -268 1 2 59 102 130 223 70
121 133 226 140 233 8 9 50 12 163 10 l151 -3 -225 -365 -224 -365 0 -237 0
-237 -145 -3 -145 -3 0 237 0 237 -54 88 c-29 48 -107 174 -171 278 -160 258
-225 365 -225 370 0 9 327 12 335 3z m-1365 -133 l0 -135 -185 0 -185 0 0
-469 0 -470 -129 -3 c-70 -2 -136 -2 -145 0 -14 3 -16 47 -16 473 l0 469 -185
0 -185 0 0 135 0 135 515 0 515 0 0 -135z m705 93 c9 -24 97 -250 195 -503 98
-253 194 -502 214 -552 20 -51 36 -97 36 -103 0 -6 -56 -10 -154 -10 l-154 0
-35 98 -35 97 -252 0 -252 0 -36 -97 -36 -98 -131 -1 c-123 -1 -167 0 -172 5
-2 1 94 254 213 562 119 307 223 578 231 602 l15 42 168 0 168 0 17 -42z
m-1324 -1467 c29 -23 31 -81 4 -111 -28 -31 -88 -27 -114 6 -12 15 -21 37 -21
49 0 12 9 34 21 49 25 32 75 35 110 7z m1258 -7 c12 -15 21 -37 21 -49 0 -12
-9 -34 -21 -49 -16 -20 -29 -26 -59 -26 -30 0 -43 6 -59 26 -12 15 -21 37 -21
49 0 12 9 34 21 49 16 20 29 26 59 26 30 0 43 -6 59 -26z m768 4 c50 -47 16
-128 -54 -128 -44 0 -73 30 -73 75 0 67 77 100 127 53z"/>
<path d="M4953 3688 c-6 -18 -39 -107 -72 -198 -33 -91 -61 -171 -61 -177 0
-10 37 -13 150 -13 86 0 150 4 150 9 0 21 -137 391 -149 404 -4 4 -12 -7 -18
-25z"/>
</g>
</svg>
